<svg width="956" height="401" viewBox="0 0 956 401" fill="none" xmlns="http://www.w3.org/2000/svg"
    role="image">
    <title>piyp.</title>
    <path
        d="M912.945 329.739C901.338 329.739 891.327 325.531 882.912 317.116C874.497 308.701 870.29 298.69 870.29 287.084C870.29 275.187 874.497 265.176 882.912 257.051C891.327 248.926 901.338 244.864 912.945 244.864C924.551 244.864 934.417 248.926 942.542 257.051C950.957 265.176 955.164 275.187 955.164 287.084C955.164 298.69 950.957 308.701 942.542 317.116C934.417 325.531 924.551 329.739 912.945 329.739Z"
        fill="currentColor" />
    <path
        d="M622.654 400.232V114.269H680.107L688.813 143.867C695.777 131.97 705.497 123.12 717.975 117.316C730.742 111.223 742.929 108.176 754.536 108.176C773.107 108.176 789.502 112.819 803.72 122.104C818.228 131.389 829.545 144.592 837.67 161.712C845.795 178.542 849.857 198.709 849.857 222.213C849.857 245.716 845.795 266.028 837.67 283.148C829.545 299.978 818.228 312.891 803.72 321.886C789.502 330.881 773.107 335.379 754.536 335.379C742.929 335.379 730.742 332.332 717.975 326.239C705.497 320.145 695.777 311.15 688.813 299.253V400.232H622.654ZM733.644 284.019C746.411 284.019 757.438 278.796 766.723 268.35C776.299 257.904 781.087 242.525 781.087 222.213C781.087 202.481 776.299 187.102 766.723 176.076C757.438 165.049 746.411 159.536 733.644 159.536C720.586 159.536 709.27 164.179 699.694 173.464C690.409 182.75 685.766 198.564 685.766 220.907C685.766 242.96 690.409 259.064 699.694 269.22C709.27 279.086 720.586 284.019 733.644 284.019Z"
        fill="currentColor" />
    <path
        d="M403.905 400.232V352.354H416.963C426.828 352.354 434.228 351.919 439.161 351.048C444.093 350.178 447.866 348.001 450.477 344.519C453.379 341.327 455.99 336.104 458.312 328.85L375.613 114.269H446.56L488.78 249.198L530.129 114.269H601.075L518.377 330.156C511.413 348.437 504.304 362.655 497.049 372.811C490.085 382.967 481.09 390.076 470.064 394.138C459.037 398.201 444.093 400.232 425.232 400.232H403.905Z"
        fill="currentColor" />
    <path
        d="M323.196 78.5779C312.46 78.5779 303.174 74.8057 295.34 67.2612C287.795 59.4266 284.023 50.1412 284.023 39.4049C284.023 28.3784 287.795 19.093 295.34 11.5486C303.174 4.00414 312.46 0.231934 323.196 0.231934C334.223 0.231934 343.508 4.00414 351.053 11.5486C358.597 19.093 362.369 28.3784 362.369 39.4049C362.369 50.1412 358.597 59.4266 351.053 67.2612C343.508 74.8057 334.223 78.5779 323.196 78.5779ZM289.682 330.155V164.758H248.768V114.269H356.276V330.155H289.682Z"
        fill="currentColor" />
    <path
        d="M0.799805 400.232V114.269H58.2535L66.9586 143.867C73.9227 131.97 83.6434 123.12 96.1207 117.316C108.888 111.223 121.075 108.176 132.682 108.176C151.253 108.176 167.648 112.819 181.866 122.104C196.374 131.389 207.691 144.592 215.816 161.712C223.941 178.542 228.003 198.709 228.003 222.213C228.003 245.716 223.941 266.028 215.816 283.148C207.691 299.978 196.374 312.891 181.866 321.886C167.648 330.881 151.253 335.379 132.682 335.379C121.075 335.379 108.888 332.332 96.1207 326.239C83.6434 320.145 73.9227 311.15 66.9586 299.253V400.232H0.799805ZM111.79 284.019C124.557 284.019 135.584 278.796 144.869 268.35C154.445 257.904 159.233 242.525 159.233 222.213C159.233 202.481 154.445 187.102 144.869 176.076C135.584 165.049 124.557 159.536 111.79 159.536C98.7322 159.536 87.4156 164.179 77.84 173.464C68.5545 182.75 63.9118 198.564 63.9118 220.907C63.9118 242.96 68.5545 259.064 77.84 269.22C87.4156 279.086 98.7322 284.019 111.79 284.019Z"
        fill="currentColor" />
</svg>