<svg width="212" height="89" viewBox="0 0 212 89" fill="none" xmlns="http://www.w3.org/2000/svg"
    role="image">
    <title>piyp.</title>
    <path
        d="M201.983 72.908C199.423 72.908 197.215 71.98 195.359 70.124C193.503 68.268 192.575 66.06 192.575 63.5C192.575 60.876 193.503 58.668 195.359 56.876C197.215 55.084 199.423 54.188 201.983 54.188C204.543 54.188 206.719 55.084 208.511 56.876C210.367 58.668 211.295 60.876 211.295 63.5C211.295 66.06 210.367 68.268 208.511 70.124C206.719 71.98 204.543 72.908 201.983 72.908Z"
        fill="currentColor" />
    <path
        d="M137.956 88.456V25.384H150.628L152.548 31.912C154.084 29.288 156.228 27.336 158.98 26.056C161.796 24.712 164.484 24.04 167.044 24.04C171.14 24.04 174.756 25.064 177.892 27.112C181.092 29.16 183.588 32.072 185.38 35.848C187.172 39.56 188.068 44.008 188.068 49.192C188.068 54.376 187.172 58.856 185.38 62.632C183.588 66.344 181.092 69.192 177.892 71.176C174.756 73.16 171.14 74.152 167.044 74.152C164.484 74.152 161.796 73.48 158.98 72.136C156.228 70.792 154.084 68.808 152.548 66.184V88.456H137.956ZM162.436 62.824C165.252 62.824 167.684 61.672 169.732 59.368C171.844 57.064 172.9 53.672 172.9 49.192C172.9 44.84 171.844 41.448 169.732 39.016C167.684 36.584 165.252 35.368 162.436 35.368C159.556 35.368 157.06 36.392 154.948 38.44C152.9 40.488 151.876 43.976 151.876 48.904C151.876 53.768 152.9 57.32 154.948 59.56C157.06 61.736 159.556 62.824 162.436 62.824Z"
        fill="currentColor" />
    <path
        d="M89.7087 88.456V77.896H92.5888C94.7648 77.896 96.3967 77.8 97.4847 77.608C98.5727 77.416 99.4048 76.936 99.9808 76.168C100.621 75.464 101.197 74.312 101.709 72.712L83.4688 25.384H99.1168L108.429 55.144L117.549 25.384H133.197L114.957 73C113.421 77.032 111.853 80.168 110.253 82.408C108.717 84.648 106.733 86.216 104.301 87.112C101.869 88.008 98.5728 88.456 94.4128 88.456H89.7087Z"
        fill="currentColor" />
    <path
        d="M71.9077 17.5119C69.5397 17.5119 67.4917 16.6799 65.7637 15.0159C64.0997 13.2879 63.2677 11.2399 63.2677 8.87193C63.2677 6.43993 64.0997 4.39193 65.7637 2.72793C67.4917 1.06393 69.5397 0.231934 71.9077 0.231934C74.3397 0.231934 76.3877 1.06393 78.0517 2.72793C79.7157 4.39193 80.5477 6.43993 80.5477 8.87193C80.5477 11.2399 79.7157 13.2879 78.0517 15.0159C76.3877 16.6799 74.3397 17.5119 71.9077 17.5119ZM64.5157 72.9999V36.5199H55.4917V25.3839H79.2037V72.9999H64.5157Z"
        fill="currentColor" />
    <path
        d="M0.799805 88.456V25.384H13.4718L15.3918 31.912C16.9278 29.288 19.0718 27.336 21.8238 26.056C24.6398 24.712 27.3278 24.04 29.8878 24.04C33.9838 24.04 37.5998 25.064 40.7358 27.112C43.9358 29.16 46.4318 32.072 48.2238 35.848C50.0158 39.56 50.9118 44.008 50.9118 49.192C50.9118 54.376 50.0158 58.856 48.2238 62.632C46.4318 66.344 43.9358 69.192 40.7358 71.176C37.5998 73.16 33.9838 74.152 29.8878 74.152C27.3278 74.152 24.6398 73.48 21.8238 72.136C19.0718 70.792 16.9278 68.808 15.3918 66.184V88.456H0.799805ZM25.2798 62.824C28.0958 62.824 30.5278 61.672 32.5758 59.368C34.6878 57.064 35.7438 53.672 35.7438 49.192C35.7438 44.84 34.6878 41.448 32.5758 39.016C30.5278 36.584 28.0958 35.368 25.2798 35.368C22.3998 35.368 19.9038 36.392 17.7918 38.44C15.7438 40.488 14.7198 43.976 14.7198 48.904C14.7198 53.768 15.7438 57.32 17.7918 59.56C19.9038 61.736 22.3998 62.824 25.2798 62.824Z"
        fill="currentColor" />
</svg>